<mxfile host="app.diagrams.net" modified="2021-11-09T07:52:03.880Z" agent="5.0 (Windows NT 10.0; Win64; x64) AppleWebKit/537.36 (KHTML, like Gecko) Chrome/95.0.4638.69 Safari/537.36" etag="fj0V0o4E0WwyZFAS3Zw8" version="15.7.0" type="github">
  <diagram id="sQ8EXhfYu_Z4RW1TYD9f" name="Page-1">
    <mxGraphModel dx="1422" dy="762" grid="1" gridSize="10" guides="1" tooltips="1" connect="0" arrows="1" fold="1" page="1" pageScale="1" pageWidth="827" pageHeight="1169" math="0" shadow="0">
      <root>
        <mxCell id="0" />
        <mxCell id="1" parent="0" />
        <mxCell id="wOnGFkAYj0Utu0_wV-MN-16" value="구현" style="swimlane;fillColor=#dae8fc;strokeColor=#6c8ebf;" parent="1" vertex="1">
          <mxGeometry x="270" y="50" width="339" height="660" as="geometry" />
        </mxCell>
        <mxCell id="Qk77YPfGWMz_Xu8xhVY--3" value="패트롤 스테이지 입장" style="rounded=1;whiteSpace=wrap;html=1;" parent="wOnGFkAYj0Utu0_wV-MN-16" vertex="1">
          <mxGeometry x="10" y="180" width="159" height="60" as="geometry" />
        </mxCell>
        <mxCell id="Qk77YPfGWMz_Xu8xhVY--4" value="스테이지 리스트 패트롤 진행도 표기" style="rounded=1;whiteSpace=wrap;html=1;" parent="wOnGFkAYj0Utu0_wV-MN-16" vertex="1">
          <mxGeometry x="10" y="530" width="159" height="60" as="geometry" />
        </mxCell>
        <mxCell id="Qk77YPfGWMz_Xu8xhVY--5" value="패트롤 전투 결과 위젯 작업" style="rounded=1;whiteSpace=wrap;html=1;" parent="wOnGFkAYj0Utu0_wV-MN-16" vertex="1">
          <mxGeometry x="10" y="250" width="159" height="60" as="geometry" />
        </mxCell>
        <mxCell id="twP-iYC3pEqsz_lacLF1-1" value="로그인 시 달성 별 갯수와 별 위치 받아서 저장하기" style="rounded=1;whiteSpace=wrap;html=1;" vertex="1" parent="wOnGFkAYj0Utu0_wV-MN-16">
          <mxGeometry x="10" y="40" width="159" height="60" as="geometry" />
        </mxCell>
        <mxCell id="twP-iYC3pEqsz_lacLF1-3" value="패트롤 전투 결과 서버에 전달" style="rounded=1;whiteSpace=wrap;html=1;" vertex="1" parent="wOnGFkAYj0Utu0_wV-MN-16">
          <mxGeometry x="10" y="320" width="159" height="60" as="geometry" />
        </mxCell>
        <mxCell id="twP-iYC3pEqsz_lacLF1-4" value="패트롤 전투 결과 로컬에 저장" style="rounded=1;whiteSpace=wrap;html=1;" vertex="1" parent="wOnGFkAYj0Utu0_wV-MN-16">
          <mxGeometry x="10" y="390" width="159" height="60" as="geometry" />
        </mxCell>
        <mxCell id="twP-iYC3pEqsz_lacLF1-5" value="스테이지 리스트 패트롤 리워드 표기" style="rounded=1;whiteSpace=wrap;html=1;" vertex="1" parent="wOnGFkAYj0Utu0_wV-MN-16">
          <mxGeometry x="10" y="460" width="159" height="60" as="geometry" />
        </mxCell>
        <mxCell id="twP-iYC3pEqsz_lacLF1-6" value="월드맵 패트롤 진행도 표기" style="rounded=1;whiteSpace=wrap;html=1;" vertex="1" parent="wOnGFkAYj0Utu0_wV-MN-16">
          <mxGeometry x="10" y="110" width="159" height="60" as="geometry" />
        </mxCell>
        <mxCell id="twP-iYC3pEqsz_lacLF1-7" value="패트롤 스테이지 진행도 저장" style="rounded=1;whiteSpace=wrap;html=1;" vertex="1" parent="wOnGFkAYj0Utu0_wV-MN-16">
          <mxGeometry x="180" y="40" width="159" height="60" as="geometry" />
        </mxCell>
        <mxCell id="twP-iYC3pEqsz_lacLF1-8" value="스테이지 리스트 난이도 변경 처리" style="rounded=1;whiteSpace=wrap;html=1;" vertex="1" parent="wOnGFkAYj0Utu0_wV-MN-16">
          <mxGeometry x="180" y="110" width="159" height="60" as="geometry" />
        </mxCell>
        <mxCell id="wOnGFkAYj0Utu0_wV-MN-17" value="분석 | 논의" style="swimlane;strokeColor=#82b366;fillColor=#D5E8D4;" parent="1" vertex="1">
          <mxGeometry x="49" y="50" width="211" height="270" as="geometry" />
        </mxCell>
        <mxCell id="wOnGFkAYj0Utu0_wV-MN-18" value="고려" style="swimlane;fillColor=#e1d5e7;strokeColor=#9673a6;" parent="1" vertex="1">
          <mxGeometry x="620" y="50" width="220" height="380" as="geometry" />
        </mxCell>
        <mxCell id="MTrl5ynQiznJmTlUDSWs-4" value="대기 | 요청" style="swimlane;strokeColor=#d79b00;fillColor=#ffe6cc;" parent="1" vertex="1">
          <mxGeometry x="49" y="330" width="210" height="380" as="geometry" />
        </mxCell>
        <mxCell id="9A0mLHsorhuxDrabdEOj-9" value="에러 | 수정" style="swimlane;fillColor=#f8cecc;strokeColor=#b85450;startSize=23;" parent="1" vertex="1">
          <mxGeometry x="620" y="440" width="500" height="270" as="geometry" />
        </mxCell>
        <mxCell id="hDPYIisuoytdxOGGVnbc-3" value="     폐기 | 완료" style="swimlane;strokeColor=#666666;fillColor=#f5f5f5;fontColor=#333333;align=left;" parent="1" vertex="1">
          <mxGeometry x="1130" y="50" width="760" height="980" as="geometry" />
        </mxCell>
        <mxCell id="Qk77YPfGWMz_Xu8xhVY--1" value="UPV_Mapper_Stage_Patrol 작성" style="rounded=1;whiteSpace=wrap;html=1;" parent="hDPYIisuoytdxOGGVnbc-3" vertex="1">
          <mxGeometry x="10" y="30" width="159" height="60" as="geometry" />
        </mxCell>
        <mxCell id="Qk77YPfGWMz_Xu8xhVY--6" value="UPV_Mapper_Star_Condition 작성" style="rounded=1;whiteSpace=wrap;html=1;" parent="hDPYIisuoytdxOGGVnbc-3" vertex="1">
          <mxGeometry x="10" y="100" width="159" height="60" as="geometry" />
        </mxCell>
        <mxCell id="Qk77YPfGWMz_Xu8xhVY--7" value="UPV_Mapper_Star_Point&lt;br&gt;작성" style="rounded=1;whiteSpace=wrap;html=1;" parent="hDPYIisuoytdxOGGVnbc-3" vertex="1">
          <mxGeometry x="10" y="170" width="159" height="60" as="geometry" />
        </mxCell>
        <mxCell id="Qk77YPfGWMz_Xu8xhVY--2" value="패트롤 지역 월드맵에 추가" style="rounded=1;whiteSpace=wrap;html=1;" parent="hDPYIisuoytdxOGGVnbc-3" vertex="1">
          <mxGeometry x="10" y="240" width="159" height="60" as="geometry" />
        </mxCell>
        <mxCell id="6kkVd8V_ymKgZ0_L0vxy-3" value="My Comment" style="swimlane;" parent="1" vertex="1">
          <mxGeometry x="49" y="730" width="1070" height="300" as="geometry">
            <mxRectangle x="49" y="720" width="100" height="23" as="alternateBounds" />
          </mxGeometry>
        </mxCell>
        <mxCell id="KfCYHrgsOKh0RXw9eGPa-2" value="&lt;h1&gt;Memo&lt;/h1&gt;&lt;p&gt;Lorem ipsum&lt;/p&gt;" style="text;html=1;strokeColor=none;fillColor=none;spacing=5;spacingTop=-20;whiteSpace=wrap;overflow=hidden;rounded=0;align=left;" parent="6kkVd8V_ymKgZ0_L0vxy-3" vertex="1">
          <mxGeometry y="20" width="1070" height="280" as="geometry" />
        </mxCell>
        <mxCell id="oumLD8d3DvaTa1NXrWpt-27" value="Tool" style="swimlane;horizontal=0;" parent="1" vertex="1">
          <mxGeometry x="850" y="50" width="270" height="380" as="geometry" />
        </mxCell>
        <mxCell id="oumLD8d3DvaTa1NXrWpt-25" value="" style="rounded=1;whiteSpace=wrap;html=1;" parent="oumLD8d3DvaTa1NXrWpt-27" vertex="1">
          <mxGeometry x="31" y="10" width="159" height="60" as="geometry" />
        </mxCell>
        <mxCell id="oumLD8d3DvaTa1NXrWpt-31" value="" style="group" parent="oumLD8d3DvaTa1NXrWpt-27" vertex="1" connectable="0">
          <mxGeometry x="31" y="90" width="220" height="80" as="geometry" />
        </mxCell>
        <mxCell id="oumLD8d3DvaTa1NXrWpt-28" value="" style="rounded=1;whiteSpace=wrap;html=1;" parent="oumLD8d3DvaTa1NXrWpt-31" vertex="1">
          <mxGeometry width="159" height="60" as="geometry" />
        </mxCell>
        <mxCell id="oumLD8d3DvaTa1NXrWpt-29" value="" style="rounded=0;whiteSpace=wrap;html=1;" parent="oumLD8d3DvaTa1NXrWpt-31" vertex="1">
          <mxGeometry x="100" y="60" width="120" height="20" as="geometry" />
        </mxCell>
        <mxCell id="oumLD8d3DvaTa1NXrWpt-30" value="" style="rounded=0;whiteSpace=wrap;html=1;" parent="oumLD8d3DvaTa1NXrWpt-31" vertex="1">
          <mxGeometry x="100" y="40" width="120" height="20" as="geometry" />
        </mxCell>
        <mxCell id="oumLD8d3DvaTa1NXrWpt-32" value="" style="swimlane;fillColor=#dae8fc;strokeColor=#6c8ebf;" parent="oumLD8d3DvaTa1NXrWpt-27" vertex="1">
          <mxGeometry x="31.5" y="180" width="219.5" height="60" as="geometry" />
        </mxCell>
        <mxCell id="oumLD8d3DvaTa1NXrWpt-34" value="" style="swimlane;" parent="oumLD8d3DvaTa1NXrWpt-27" vertex="1">
          <mxGeometry x="31" y="260" width="219" height="50" as="geometry" />
        </mxCell>
        <mxCell id="Fb32EvJjGHJRLybvlaYY-3" value="Text" style="text;html=1;align=left;verticalAlign=middle;resizable=0;points=[];autosize=1;strokeColor=none;" parent="oumLD8d3DvaTa1NXrWpt-27" vertex="1">
          <mxGeometry x="220" y="20" width="40" height="20" as="geometry" />
        </mxCell>
      </root>
    </mxGraphModel>
  </diagram>
</mxfile>
